# xmcd
#
# Track frame offsets: 
#        150
#        19747
#        36388
#        58976
#        86038
#        105648
#        127574
#        162534
#
# Disc length: 2414 seconds
#
# Revision: 0
# Processed by: cddbd v1.5.2PL0 Copyright (c) Steve Scherf et al.
# Submitted via: ExactAudioCopy v0.99pb4
#
DISCID=65096c08
DTITLE=Gloster Williams And The King James Version - Together 
DYEAR=1977
DGENRE=Soul
TTITLE0=Get Ready For This
TTITLE1=What Good Is A Song
TTITLE2=No, No One 
TTITLE3=He Loves You Interlude 
TTITLE4=There's Not A Friend (Part One) 
TTITLE5=Touch My Life 
TTITLE6=(Monologue) Together 
TTITLE7=There's Not A Friend (Part Two)
EXTD=
EXTT0=
EXTT1=
EXTT2=
EXTT3=
EXTT4=
EXTT5=
EXTT6=
EXTT7=
PLAYORDER=
